<svg width="24" height="24" viewBox="0 0 24 24" fill="none" xmlns="http://www.w3.org/2000/svg">
<path d="M12 2C8.68629 2 6 4.68629 6 8C6 11.3137 8.68629 14 12 14C15.3137 14 18 11.3137 18 8C18 4.68629 15.3137 2 12 2Z" fill="#333333"/>
<path d="M12 14C11.1895 14 10.4285 13.8291 9.73691 13.5186L6.5 22H17.5L14.2631 13.5186C13.5715 13.8291 12.8105 14 12 14Z" fill="#333333"/>
<path d="M10.5 8C10.5 6.34315 12 4.5 12 4.5V14.5C12 14.5 10.5 12.6569 10.5 11V8Z" fill="#333333"/>
<path d="M13.5 8C13.5 6.34315 12 4.5 12 4.5V14.5C12 14.5 13.5 12.6569 13.5 11V8Z" fill="#333333"/>
<path d="M7.79289 16.2071L6.5 22L12 14.5V11L7.79289 16.2071Z" fill="#333333"/>
<path d="M16.2071 16.2071L17.5 22L12 14.5V11L16.2071 16.2071Z" fill="#333333"/>
</svg>