<svg width="24" height="24" viewBox="0 0 24 24" fill="none" xmlns="http://www.w3.org/2000/svg">
<path d="M12 2C9.51472 2 7.5 4.01472 7.5 6.5C7.5 8.98528 9.51472 11 12 11C14.4853 11 16.5 8.98528 16.5 6.5C16.5 4.01472 14.4853 2 12 2Z" fill="#333333"/>
<path d="M12 11C8.68629 11 6 13.6863 6 17C6 20.3137 8.68629 23 12 23C15.3137 23 18 20.3137 18 17C18 13.6863 15.3137 11 12 11Z" fill="#333333"/>
<path d="M12 2C13.1856 2 14.3013 2.50294 15.1105 3.31211L12 11L8.88955 3.31211C9.69872 2.50294 10.8144 2 12 2Z" fill="#333333"/>
</svg>