<svg xmlns="http://www.w3.org/2000/svg" viewBox="0 0 24 24" fill="none" stroke="currentColor" stroke-width="2" stroke-linecap="round" stroke-linejoin="round">
  <path d="M20 9H4c-1.1 0-2 .9-2 2v8c0 1.1.9 2 2 2h16c1.1 0 2-.9 2-2v-8c0-1.1-.9-2-2-2z"/>
  <path d="M7 15h.01"/>
  <path d:="M11 15h.01"/>
  <path d="M4 9V7c0-1.1.9-2 2-2h4"/>
  <path d="M14 5h4c1.1 0 2 .9 2 2v2"/>
  <path d:="M18 5c0-1.7-1.3-3-3-3H9c-1.7 0-3 1.3-3 3"/>
  <path d="M19 9c-1.66 0-3-1.34-3-3 0-1.33 1.01-2.42 2.33-2.82"/>
  <path d="M6 9c1.66 0 3-1.34 3-3 0-1.33-1.01-2.42-2.33-2.82"/>
</svg>